<mxfile host="65bd71144e">
    <diagram id="0PjhrA5WFalBWkvMshbS" name="Page-1">
        <mxGraphModel dx="1257" dy="787" grid="1" gridSize="10" guides="1" tooltips="1" connect="1" arrows="1" fold="1" page="1" pageScale="1" pageWidth="850" pageHeight="1100" math="0" shadow="0">
            <root>
                <mxCell id="0"/>
                <mxCell id="1" parent="0"/>
                <mxCell id="7" style="edgeStyle=none;html=1;fillColor=#f0a30a;strokeColor=#BD7000;" edge="1" parent="1" source="2" target="6">
                    <mxGeometry relative="1" as="geometry"/>
                </mxCell>
                <mxCell id="2" value="User Search" style="ellipse;whiteSpace=wrap;html=1;aspect=fixed;fillColor=#f0a30a;fontColor=#000000;strokeColor=#BD7000;" vertex="1" parent="1">
                    <mxGeometry x="30" y="60" width="110" height="110" as="geometry"/>
                </mxCell>
                <mxCell id="9" style="edgeStyle=none;html=1;fillColor=#e51400;strokeColor=#B20000;" edge="1" parent="1" source="6" target="8">
                    <mxGeometry relative="1" as="geometry"/>
                </mxCell>
                <mxCell id="6" value="Load search Result" style="rounded=0;whiteSpace=wrap;html=1;fillColor=#a20025;fontColor=#ffffff;strokeColor=#6F0000;" vertex="1" parent="1">
                    <mxGeometry x="210" y="85" width="120" height="60" as="geometry"/>
                </mxCell>
                <mxCell id="8" value="Render Search results" style="rounded=0;whiteSpace=wrap;html=1;fillColor=#6d8764;fontColor=#ffffff;strokeColor=#3A5431;" vertex="1" parent="1">
                    <mxGeometry x="390" y="85" width="120" height="60" as="geometry"/>
                </mxCell>
                <mxCell id="20" value="" style="edgeStyle=none;html=1;fillColor=#e3c800;strokeColor=#B09500;" edge="1" parent="1" source="15" target="19">
                    <mxGeometry relative="1" as="geometry"/>
                </mxCell>
                <mxCell id="15" value="User selects article" style="ellipse;whiteSpace=wrap;html=1;fillColor=#f0a30a;strokeColor=#BD7000;fontColor=#000000;rounded=0;" vertex="1" parent="1">
                    <mxGeometry x="570" y="75" width="80" height="80" as="geometry"/>
                </mxCell>
                <mxCell id="65" value="" style="edgeStyle=none;html=1;fillColor=#e51400;strokeColor=#B20000;" edge="1" parent="1" source="19" target="64">
                    <mxGeometry relative="1" as="geometry"/>
                </mxCell>
                <mxCell id="19" value="Load Article" style="whiteSpace=wrap;html=1;fillColor=#a20025;strokeColor=#6F0000;fontColor=#ffffff;rounded=0;" vertex="1" parent="1">
                    <mxGeometry x="750" y="85" width="120" height="60" as="geometry"/>
                </mxCell>
                <mxCell id="24" value="" style="edgeStyle=elbowEdgeStyle;elbow=horizontal;endArrow=classic;html=1;curved=0;rounded=0;endSize=8;startSize=8;fillColor=#60a917;strokeColor=#2D7600;startArrow=none;" edge="1" parent="1" source="43" target="8">
                    <mxGeometry width="50" height="50" relative="1" as="geometry">
                        <mxPoint x="145" y="250" as="sourcePoint"/>
                        <mxPoint x="195" y="200" as="targetPoint"/>
                        <Array as="points">
                            <mxPoint x="410" y="160"/>
                            <mxPoint x="380" y="150"/>
                            <mxPoint x="370" y="160"/>
                            <mxPoint x="310" y="140"/>
                            <mxPoint x="240" y="240"/>
                            <mxPoint x="360" y="210"/>
                            <mxPoint x="380" y="190"/>
                        </Array>
                    </mxGeometry>
                </mxCell>
                <mxCell id="38" value="" style="edgeStyle=none;html=1;fillColor=#e3c800;strokeColor=#B09500;" edge="1" parent="1" source="31" target="37">
                    <mxGeometry relative="1" as="geometry"/>
                </mxCell>
                <mxCell id="31" value="User click on sort by type" style="ellipse;whiteSpace=wrap;html=1;fillColor=#f0a30a;strokeColor=#BD7000;fontColor=#000000;rounded=0;" vertex="1" parent="1">
                    <mxGeometry x="45" y="330" width="80" height="80" as="geometry"/>
                </mxCell>
                <mxCell id="37" value="Sort articles by type" style="whiteSpace=wrap;html=1;fillColor=#60a917;strokeColor=#2D7600;fontColor=#ffffff;rounded=0;" vertex="1" parent="1">
                    <mxGeometry x="25" y="210" width="120" height="60" as="geometry"/>
                </mxCell>
                <mxCell id="44" value="" style="edgeStyle=none;html=1;fillColor=#e3c800;strokeColor=#B09500;" edge="1" parent="1" source="41" target="43">
                    <mxGeometry relative="1" as="geometry"/>
                </mxCell>
                <mxCell id="41" value="User clicks on sory by name&lt;br&gt;A-Z" style="ellipse;whiteSpace=wrap;html=1;fillColor=#f0a30a;strokeColor=#BD7000;fontColor=#000000;rounded=0;" vertex="1" parent="1">
                    <mxGeometry x="200" y="330" width="80" height="80" as="geometry"/>
                </mxCell>
                <mxCell id="45" value="" style="edgeStyle=elbowEdgeStyle;elbow=horizontal;endArrow=none;html=1;curved=0;rounded=0;endSize=8;startSize=8;fillColor=#60a917;strokeColor=#2D7600;" edge="1" parent="1" source="37" target="43">
                    <mxGeometry width="50" height="50" relative="1" as="geometry">
                        <mxPoint x="145" y="240" as="sourcePoint"/>
                        <mxPoint x="390" y="115" as="targetPoint"/>
                        <Array as="points"/>
                    </mxGeometry>
                </mxCell>
                <mxCell id="43" value="Sort Articles by name" style="whiteSpace=wrap;html=1;fillColor=#60a917;strokeColor=#2D7600;fontColor=#ffffff;rounded=0;" vertex="1" parent="1">
                    <mxGeometry x="180" y="210" width="120" height="60" as="geometry"/>
                </mxCell>
                <mxCell id="49" value="" style="edgeStyle=none;html=1;fillColor=#e3c800;strokeColor=#B09500;" edge="1" parent="1" source="47" target="48">
                    <mxGeometry relative="1" as="geometry"/>
                </mxCell>
                <mxCell id="47" value="User clicks on sory by tag" style="ellipse;whiteSpace=wrap;html=1;fillColor=#f0a30a;strokeColor=#BD7000;fontColor=#000000;rounded=0;" vertex="1" parent="1">
                    <mxGeometry x="350" y="330" width="80" height="80" as="geometry"/>
                </mxCell>
                <mxCell id="48" value="Sort Articles by name" style="whiteSpace=wrap;html=1;fillColor=#60a917;strokeColor=#2D7600;fontColor=#ffffff;rounded=0;" vertex="1" parent="1">
                    <mxGeometry x="330" y="210" width="120" height="60" as="geometry"/>
                </mxCell>
                <mxCell id="53" value="" style="edgeStyle=none;html=1;fillColor=#76608a;strokeColor=#432D57;" edge="1" parent="1" source="51" target="41">
                    <mxGeometry relative="1" as="geometry"/>
                </mxCell>
                <mxCell id="54" style="edgeStyle=none;html=1;entryX=0.05;entryY=0.825;entryDx=0;entryDy=0;entryPerimeter=0;fillColor=#76608a;strokeColor=#432D57;" edge="1" parent="1" source="51" target="47">
                    <mxGeometry relative="1" as="geometry"/>
                </mxCell>
                <mxCell id="55" style="edgeStyle=none;html=1;entryX=1;entryY=1;entryDx=0;entryDy=0;fillColor=#76608a;strokeColor=#432D57;" edge="1" parent="1" source="51" target="31">
                    <mxGeometry relative="1" as="geometry"/>
                </mxCell>
                <mxCell id="58" value="" style="edgeStyle=none;html=1;fillColor=#76608a;strokeColor=#432D57;" edge="1" parent="1" source="51" target="57">
                    <mxGeometry relative="1" as="geometry"/>
                </mxCell>
                <mxCell id="51" value="Which sorting type" style="rhombus;whiteSpace=wrap;html=1;fillColor=#76608a;fontColor=#ffffff;strokeColor=#432D57;" vertex="1" parent="1">
                    <mxGeometry x="200" y="470" width="80" height="80" as="geometry"/>
                </mxCell>
                <mxCell id="57" value="User click on sort" style="ellipse;whiteSpace=wrap;html=1;fillColor=#f0a30a;strokeColor=#BD7000;fontColor=#000000;" vertex="1" parent="1">
                    <mxGeometry x="200" y="630" width="80" height="80" as="geometry"/>
                </mxCell>
                <mxCell id="59" value="" style="edgeStyle=elbowEdgeStyle;elbow=horizontal;endArrow=classic;html=1;curved=0;rounded=0;endSize=8;startSize=8;exitX=1;exitY=0.5;exitDx=0;exitDy=0;fillColor=#e3c800;strokeColor=#B09500;" edge="1" parent="1" source="57" target="8">
                    <mxGeometry width="50" height="50" relative="1" as="geometry">
                        <mxPoint x="400" y="670" as="sourcePoint"/>
                        <mxPoint x="450" y="620" as="targetPoint"/>
                        <Array as="points">
                            <mxPoint x="480" y="320"/>
                        </Array>
                    </mxGeometry>
                </mxCell>
                <mxCell id="66" style="edgeStyle=none;html=1;fillColor=#647687;strokeColor=#314354;" edge="1" parent="1" source="61" target="67">
                    <mxGeometry relative="1" as="geometry">
                        <mxPoint x="810" y="240" as="targetPoint"/>
                    </mxGeometry>
                </mxCell>
                <mxCell id="61" value="Page Loads with article ID" style="ellipse;whiteSpace=wrap;html=1;fillColor=#f0a30a;strokeColor=#BD7000;fontColor=#000000;rounded=0;" vertex="1" parent="1">
                    <mxGeometry x="570" y="200" width="80" height="80" as="geometry"/>
                </mxCell>
                <mxCell id="62" value="" style="edgeStyle=elbowEdgeStyle;elbow=horizontal;endArrow=classic;html=1;curved=0;rounded=0;endSize=8;startSize=8;exitX=1;exitY=0.5;exitDx=0;exitDy=0;fillColor=#e3c800;strokeColor=#B09500;" edge="1" parent="1" source="61" target="19">
                    <mxGeometry width="50" height="50" relative="1" as="geometry">
                        <mxPoint x="700" y="250" as="sourcePoint"/>
                        <mxPoint x="740" y="140" as="targetPoint"/>
                        <Array as="points">
                            <mxPoint x="710" y="240"/>
                        </Array>
                    </mxGeometry>
                </mxCell>
                <mxCell id="63" value="Makr Selected Result" style="edgeStyle=elbowEdgeStyle;elbow=horizontal;endArrow=classic;html=1;curved=0;rounded=0;endSize=8;startSize=8;exitX=0.413;exitY=-0.037;exitDx=0;exitDy=0;exitPerimeter=0;" edge="1" parent="1" source="15" target="8">
                    <mxGeometry x="-0.0948" y="-20" width="50" height="50" relative="1" as="geometry">
                        <mxPoint x="510" y="200" as="sourcePoint"/>
                        <mxPoint x="560" y="150" as="targetPoint"/>
                        <Array as="points">
                            <mxPoint x="600" y="70"/>
                            <mxPoint x="610" y="-80"/>
                        </Array>
                        <mxPoint as="offset"/>
                    </mxGeometry>
                </mxCell>
                <mxCell id="64" value="Render Article" style="whiteSpace=wrap;html=1;fillColor=#6d8764;strokeColor=#3A5431;fontColor=#ffffff;rounded=0;" vertex="1" parent="1">
                    <mxGeometry x="950" y="85" width="120" height="60" as="geometry"/>
                </mxCell>
                <mxCell id="67" value="Load Bookmark from local storage" style="rounded=0;whiteSpace=wrap;html=1;fillColor=#647687;fontColor=#ffffff;strokeColor=#314354;" vertex="1" parent="1">
                    <mxGeometry x="750" y="210" width="120" height="60" as="geometry"/>
                </mxCell>
                <mxCell id="73" value="" style="edgeStyle=none;html=1;fillColor=#e3c800;strokeColor=#B09500;" edge="1" parent="1" source="68" target="72">
                    <mxGeometry relative="1" as="geometry"/>
                </mxCell>
                <mxCell id="68" value="User bookmark article" style="ellipse;whiteSpace=wrap;html=1;fillColor=#f0a30a;strokeColor=#BD7000;fontColor=#000000;rounded=0;" vertex="1" parent="1">
                    <mxGeometry x="570" y="330" width="80" height="80" as="geometry"/>
                </mxCell>
                <mxCell id="69" value="" style="edgeStyle=elbowEdgeStyle;elbow=horizontal;endArrow=classic;html=1;curved=0;rounded=0;endSize=8;startSize=8;fillColor=#e3c800;strokeColor=#B09500;" edge="1" parent="1" source="68" target="64">
                    <mxGeometry width="50" height="50" relative="1" as="geometry">
                        <mxPoint x="650" y="370" as="sourcePoint"/>
                        <mxPoint x="1050" y="370" as="targetPoint"/>
                        <Array as="points">
                            <mxPoint x="1020" y="300"/>
                        </Array>
                    </mxGeometry>
                </mxCell>
                <mxCell id="70" value="Store bookmakrs to local storage" style="whiteSpace=wrap;html=1;fillColor=#647687;strokeColor=#314354;fontColor=#ffffff;rounded=0;" vertex="1" parent="1">
                    <mxGeometry x="750" y="390" width="120" height="60" as="geometry"/>
                </mxCell>
                <mxCell id="72" value="Render Bookmarks&lt;br&gt;" style="whiteSpace=wrap;html=1;fillColor=#6d8764;strokeColor=#3A5431;fontColor=#ffffff;rounded=0;" vertex="1" parent="1">
                    <mxGeometry x="550" y="530" width="120" height="60" as="geometry"/>
                </mxCell>
                <mxCell id="75" value="User click on bookmark" style="ellipse;whiteSpace=wrap;html=1;fillColor=#f0a30a;strokeColor=#BD7000;fontColor=#000000;rounded=0;" vertex="1" parent="1">
                    <mxGeometry x="970" y="520" width="80" height="80" as="geometry"/>
                </mxCell>
                <mxCell id="77" value="" style="edgeStyle=elbowEdgeStyle;elbow=horizontal;endArrow=classic;html=1;curved=0;rounded=0;endSize=8;startSize=8;fillColor=#647687;strokeColor=#314354;" edge="1" parent="1" source="68" target="70">
                    <mxGeometry width="50" height="50" relative="1" as="geometry">
                        <mxPoint x="480" y="370" as="sourcePoint"/>
                        <mxPoint x="530" y="320" as="targetPoint"/>
                    </mxGeometry>
                </mxCell>
                <mxCell id="78" value="" style="edgeStyle=elbowEdgeStyle;elbow=horizontal;endArrow=classic;html=1;curved=0;rounded=0;endSize=8;startSize=8;entryX=1.025;entryY=0.383;entryDx=0;entryDy=0;entryPerimeter=0;fillColor=#e3c800;strokeColor=#B09500;" edge="1" parent="1" source="75" target="64">
                    <mxGeometry width="50" height="50" relative="1" as="geometry">
                        <mxPoint x="1040" y="510" as="sourcePoint"/>
                        <mxPoint x="1120" y="110" as="targetPoint"/>
                        <Array as="points">
                            <mxPoint x="1110" y="320"/>
                        </Array>
                    </mxGeometry>
                </mxCell>
                <mxCell id="79" value="" style="edgeStyle=elbowEdgeStyle;elbow=horizontal;endArrow=classic;html=1;curved=0;rounded=0;endSize=8;startSize=8;fillColor=#647687;strokeColor=#314354;" edge="1" parent="1" source="67" target="72">
                    <mxGeometry width="50" height="50" relative="1" as="geometry">
                        <mxPoint x="480" y="370" as="sourcePoint"/>
                        <mxPoint x="530" y="320" as="targetPoint"/>
                        <Array as="points">
                            <mxPoint x="910" y="460"/>
                        </Array>
                    </mxGeometry>
                </mxCell>
                <mxCell id="82" value="Mark selected bookmark" style="edgeStyle=elbowEdgeStyle;elbow=horizontal;endArrow=classic;html=1;curved=0;rounded=0;endSize=8;startSize=8;entryX=0.5;entryY=1;entryDx=0;entryDy=0;fillColor=#6d8764;strokeColor=#3A5431;exitX=0.5;exitY=1;exitDx=0;exitDy=0;" edge="1" parent="1" source="75" target="72">
                    <mxGeometry width="50" height="50" relative="1" as="geometry">
                        <mxPoint x="1016" y="650" as="sourcePoint"/>
                        <mxPoint x="530" y="320" as="targetPoint"/>
                        <Array as="points">
                            <mxPoint x="840" y="620"/>
                        </Array>
                    </mxGeometry>
                </mxCell>
            </root>
        </mxGraphModel>
    </diagram>
</mxfile>